<svg width="135" height="37" viewBox="0 0 135 37" fill="none" xmlns="http://www.w3.org/2000/svg">
<path d="M18.5629 34.1329C16.5321 34.4895 14.4656 34.5964 12.3278 34.8811L5.8075 15.7839V35.7008C3.7767 35.9145 1.92401 36.1995 0 36.4845V0H5.41582L12.8266 20.701V0H18.5629V34.1329ZM29.7862 13.361C31.9954 13.361 35.3802 13.2541 37.411 13.2541V18.9547C34.8812 18.9547 31.9241 18.9547 29.7862 19.0616V27.5416C33.1355 27.3279 36.4847 27.0426 39.8693 26.9357V32.4223L24.0854 33.6696V0H39.8693V5.70072H29.7862V13.361ZM61.0688 5.70085H55.1544V31.9241C53.2303 31.9241 51.3063 31.9241 49.4539 31.9951V5.70085H43.5395V0H61.069L61.0688 5.70085ZM70.3324 12.9692H78.1353V18.6698H70.3324V31.6034H64.7382V0H80.665V5.70072H70.3324V12.9692ZM89.9286 26.6152C93.171 26.6862 96.4487 26.9361 99.6199 27.1139V32.7434C94.5249 32.4225 89.4299 32.1023 84.228 31.9951V0H89.9286V26.6152ZM104.43 33.1354C106.247 33.2424 108.171 33.3493 110.024 33.5628V0H104.43V33.1354ZM135 0L127.767 17.3516L135 36.4845C132.862 36.1995 130.724 35.8076 128.586 35.4512L124.489 24.9051L120.321 34.5964C118.254 34.2398 116.259 34.1329 114.193 33.8478L121.532 17.1376L114.905 0H121.033L124.774 9.58434L128.765 0H135V0Z" fill="#D81F26"/>
</svg>
